<svg xmlns="http://www.w3.org/2000/svg" xmlns:xlink="http://www.w3.org/1999/xlink" width="500" zoomAndPan="magnify" viewBox="0 0 375 374.999991" height="500" preserveAspectRatio="xMidYMid meet" version="1.0"><defs><clipPath id="8c8a9a9bef"><path d="M 375 187.5 C 375 190.570312 374.925781 193.636719 374.773438 196.699219 C 374.625 199.765625 374.398438 202.824219 374.097656 205.878906 C 373.796875 208.933594 373.421875 211.976562 372.96875 215.011719 C 372.519531 218.046875 371.996094 221.070312 371.398438 224.078125 C 370.796875 227.089844 370.125 230.082031 369.378906 233.058594 C 368.636719 236.035156 367.816406 238.992188 366.925781 241.929688 C 366.035156 244.863281 365.074219 247.777344 364.039062 250.667969 C 363.003906 253.554688 361.902344 256.417969 360.726562 259.253906 C 359.554688 262.089844 358.308594 264.894531 356.996094 267.667969 C 355.6875 270.441406 354.308594 273.179688 352.859375 275.886719 C 351.414062 278.59375 349.902344 281.261719 348.324219 283.894531 C 346.746094 286.527344 345.105469 289.117188 343.402344 291.667969 C 341.695312 294.222656 339.929688 296.730469 338.101562 299.195312 C 336.273438 301.660156 334.386719 304.078125 332.4375 306.449219 C 330.492188 308.820312 328.488281 311.144531 326.429688 313.417969 C 324.367188 315.691406 322.253906 317.914062 320.082031 320.082031 C 317.914062 322.253906 315.691406 324.367188 313.417969 326.429688 C 311.144531 328.488281 308.820312 330.492188 306.449219 332.4375 C 304.078125 334.386719 301.660156 336.273438 299.195312 338.101562 C 296.730469 339.929688 294.222656 341.695312 291.667969 343.402344 C 289.117188 345.105469 286.527344 346.746094 283.894531 348.324219 C 281.261719 349.902344 278.59375 351.414062 275.886719 352.859375 C 273.179688 354.308594 270.441406 355.6875 267.667969 356.996094 C 264.894531 358.308594 262.089844 359.554688 259.253906 360.726562 C 256.417969 361.902344 253.554688 363.003906 250.667969 364.039062 C 247.777344 365.074219 244.863281 366.035156 241.929688 366.925781 C 238.992188 367.816406 236.035156 368.636719 233.058594 369.378906 C 230.082031 370.125 227.089844 370.796875 224.078125 371.398438 C 221.070312 371.996094 218.046875 372.519531 215.011719 372.96875 C 211.976562 373.421875 208.933594 373.796875 205.878906 374.097656 C 202.824219 374.398438 199.765625 374.625 196.699219 374.773438 C 193.636719 374.925781 190.570312 375 187.5 375 C 184.429688 375 181.363281 374.925781 178.300781 374.773438 C 175.234375 374.625 172.175781 374.398438 169.121094 374.097656 C 166.066406 373.796875 163.023438 373.421875 159.988281 372.96875 C 156.953125 372.519531 153.929688 371.996094 150.921875 371.398438 C 147.910156 370.796875 144.917969 370.125 141.941406 369.378906 C 138.964844 368.636719 136.007812 367.816406 133.070312 366.925781 C 130.136719 366.035156 127.222656 365.074219 124.332031 364.039062 C 121.445312 363.003906 118.582031 361.902344 115.746094 360.726562 C 112.910156 359.554688 110.105469 358.308594 107.332031 356.996094 C 104.558594 355.6875 101.820312 354.308594 99.113281 352.859375 C 96.40625 351.414062 93.738281 349.902344 91.105469 348.324219 C 88.472656 346.746094 85.882812 345.105469 83.332031 343.402344 C 80.777344 341.695312 78.269531 339.929688 75.804688 338.101562 C 73.339844 336.273438 70.921875 334.386719 68.550781 332.4375 C 66.179688 330.492188 63.855469 328.488281 61.582031 326.429688 C 59.308594 324.367188 57.085938 322.253906 54.917969 320.082031 C 52.746094 317.914062 50.632812 315.691406 48.570312 313.417969 C 46.511719 311.144531 44.507812 308.820312 42.558594 306.449219 C 40.613281 304.078125 38.726562 301.660156 36.898438 299.195312 C 35.070312 296.730469 33.304688 294.222656 31.597656 291.667969 C 29.894531 289.117188 28.253906 286.527344 26.675781 283.894531 C 25.097656 281.261719 23.585938 278.59375 22.140625 275.886719 C 20.691406 273.179688 19.3125 270.441406 18.003906 267.667969 C 16.691406 264.890625 15.445312 262.089844 14.273438 259.253906 C 13.097656 256.417969 11.996094 253.554688 10.960938 250.667969 C 9.925781 247.777344 8.964844 244.863281 8.074219 241.929688 C 7.183594 238.992188 6.363281 236.035156 5.621094 233.058594 C 4.875 230.082031 4.203125 227.089844 3.601562 224.078125 C 3.003906 221.070312 2.480469 218.046875 2.03125 215.011719 C 1.578125 211.976562 1.203125 208.933594 0.902344 205.878906 C 0.601562 202.824219 0.375 199.765625 0.226562 196.699219 C 0.0742188 193.636719 0 190.570312 0 187.5 C 0 184.429688 0.0742188 181.363281 0.226562 178.300781 C 0.375 175.234375 0.601562 172.175781 0.902344 169.121094 C 1.203125 166.066406 1.578125 163.023438 2.03125 159.988281 C 2.480469 156.953125 3.003906 153.929688 3.601562 150.921875 C 4.203125 147.910156 4.875 144.917969 5.621094 141.941406 C 6.363281 138.964844 7.183594 136.007812 8.074219 133.070312 C 8.964844 130.136719 9.925781 127.222656 10.960938 124.332031 C 11.996094 121.445312 13.097656 118.582031 14.273438 115.746094 C 15.445312 112.910156 16.691406 110.105469 18.003906 107.332031 C 19.3125 104.558594 20.691406 101.820312 22.140625 99.113281 C 23.585938 96.40625 25.097656 93.738281 26.675781 91.105469 C 28.253906 88.472656 29.894531 85.882812 31.597656 83.332031 C 33.304688 80.777344 35.070312 78.269531 36.898438 75.804688 C 38.726562 73.339844 40.613281 70.921875 42.558594 68.550781 C 44.507812 66.179688 46.511719 63.855469 48.570312 61.582031 C 50.632812 59.308594 52.746094 57.085938 54.917969 54.917969 C 57.085938 52.746094 59.308594 50.632812 61.582031 48.570312 C 63.855469 46.511719 66.179688 44.507812 68.550781 42.558594 C 70.921875 40.613281 73.339844 38.726562 75.804688 36.898438 C 78.269531 35.070312 80.777344 33.304688 83.332031 31.597656 C 85.882812 29.894531 88.472656 28.253906 91.105469 26.675781 C 93.738281 25.097656 96.40625 23.585938 99.113281 22.140625 C 101.820312 20.691406 104.558594 19.3125 107.332031 18.003906 C 110.105469 16.691406 112.910156 15.445312 115.746094 14.273438 C 118.582031 13.097656 121.445312 11.996094 124.332031 10.960938 C 127.222656 9.925781 130.136719 8.964844 133.070312 8.074219 C 136.007812 7.183594 138.964844 6.363281 141.941406 5.617188 C 144.917969 4.875 147.910156 4.203125 150.921875 3.601562 C 153.929688 3.003906 156.953125 2.480469 159.988281 2.03125 C 163.023438 1.578125 166.066406 1.203125 169.121094 0.902344 C 172.175781 0.601562 175.234375 0.375 178.300781 0.226562 C 181.363281 0.0742188 184.429688 0 187.5 0 C 190.570312 0 193.636719 0.0742188 196.699219 0.226562 C 199.765625 0.375 202.824219 0.601562 205.878906 0.902344 C 208.933594 1.203125 211.976562 1.578125 215.011719 2.03125 C 218.046875 2.480469 221.070312 3.003906 224.078125 3.601562 C 227.089844 4.203125 230.082031 4.875 233.058594 5.617188 C 236.035156 6.363281 238.992188 7.183594 241.929688 8.074219 C 244.863281 8.964844 247.777344 9.925781 250.667969 10.960938 C 253.554688 11.996094 256.417969 13.097656 259.253906 14.273438 C 262.089844 15.445312 264.894531 16.691406 267.667969 18.003906 C 270.441406 19.3125 273.179688 20.691406 275.886719 22.140625 C 278.59375 23.585938 281.261719 25.097656 283.894531 26.675781 C 286.527344 28.253906 289.117188 29.894531 291.667969 31.597656 C 294.222656 33.304688 296.730469 35.070312 299.195312 36.898438 C 301.660156 38.726562 304.078125 40.613281 306.449219 42.558594 C 308.820312 44.507812 311.144531 46.511719 313.417969 48.570312 C 315.691406 50.632812 317.914062 52.746094 320.082031 54.917969 C 322.253906 57.085938 324.367188 59.308594 326.429688 61.582031 C 328.488281 63.855469 330.492188 66.179688 332.4375 68.550781 C 334.386719 70.921875 336.273438 73.339844 338.101562 75.804688 C 339.929688 78.269531 341.695312 80.777344 343.402344 83.332031 C 345.105469 85.882812 346.746094 88.472656 348.324219 91.105469 C 349.902344 93.738281 351.414062 96.40625 352.859375 99.113281 C 354.308594 101.820312 355.6875 104.558594 356.996094 107.332031 C 358.308594 110.105469 359.554688 112.910156 360.726562 115.746094 C 361.902344 118.582031 363.003906 121.445312 364.039062 124.332031 C 365.074219 127.222656 366.035156 130.136719 366.925781 133.070312 C 367.816406 136.007812 368.636719 138.964844 369.378906 141.941406 C 370.125 144.917969 370.796875 147.910156 371.398438 150.921875 C 371.996094 153.929688 372.519531 156.953125 372.96875 159.988281 C 373.421875 163.023438 373.796875 166.066406 374.097656 169.121094 C 374.398438 172.175781 374.625 175.234375 374.773438 178.300781 C 374.925781 181.363281 375 184.429688 375 187.5 Z M 375 187.5 " clip-rule="nonzero"/></clipPath><linearGradient x1="0.00000692325" gradientTransform="matrix(0.732422, 0, 0, -0.732422, 0.0000045, 376.464837)" y1="514.000006" x2="511.99998" gradientUnits="userSpaceOnUse" y2="2.000033" id="1732ce9962"><stop stop-opacity="1" stop-color="rgb(0%, 85.899353%, 87.098694%)" offset="0"/><stop stop-opacity="1" stop-color="rgb(0%, 85.899353%, 87.098694%)" offset="0.125"/><stop stop-opacity="1" stop-color="rgb(0%, 85.899353%, 87.098694%)" offset="0.140625"/><stop stop-opacity="1" stop-color="rgb(0.138855%, 85.777283%, 87.117004%)" offset="0.148438"/><stop stop-opacity="1" stop-color="rgb(0.822449%, 85.18219%, 87.207031%)" offset="0.152344"/><stop stop-opacity="1" stop-color="rgb(1.368713%, 84.707642%, 87.278748%)" offset="0.15625"/><stop stop-opacity="1" stop-color="rgb(1.914978%, 84.233093%, 87.348938%)" offset="0.160156"/><stop stop-opacity="1" stop-color="rgb(2.461243%, 83.760071%, 87.420654%)" offset="0.164062"/><stop stop-opacity="1" stop-color="rgb(3.005981%, 83.285522%, 87.490845%)" offset="0.167969"/><stop stop-opacity="1" stop-color="rgb(3.552246%, 82.810974%, 87.562561%)" offset="0.171875"/><stop stop-opacity="1" stop-color="rgb(4.096985%, 82.336426%, 87.634277%)" offset="0.175781"/><stop stop-opacity="1" stop-color="rgb(4.64325%, 81.861877%, 87.705994%)" offset="0.179687"/><stop stop-opacity="1" stop-color="rgb(5.189514%, 81.387329%, 87.776184%)" offset="0.183594"/><stop stop-opacity="1" stop-color="rgb(5.735779%, 80.912781%, 87.8479%)" offset="0.1875"/><stop stop-opacity="1" stop-color="rgb(6.280518%, 80.438232%, 87.919617%)" offset="0.191406"/><stop stop-opacity="1" stop-color="rgb(6.826782%, 79.963684%, 87.991333%)" offset="0.195312"/><stop stop-opacity="1" stop-color="rgb(7.371521%, 79.489136%, 88.061523%)" offset="0.199219"/><stop stop-opacity="1" stop-color="rgb(7.917786%, 79.014587%, 88.13324%)" offset="0.203125"/><stop stop-opacity="1" stop-color="rgb(8.46405%, 78.540039%, 88.20343%)" offset="0.207031"/><stop stop-opacity="1" stop-color="rgb(9.010315%, 78.065491%, 88.275146%)" offset="0.210937"/><stop stop-opacity="1" stop-color="rgb(9.555054%, 77.590942%, 88.346863%)" offset="0.214844"/><stop stop-opacity="1" stop-color="rgb(10.101318%, 77.116394%, 88.418579%)" offset="0.21875"/><stop stop-opacity="1" stop-color="rgb(10.647583%, 76.641846%, 88.48877%)" offset="0.222656"/><stop stop-opacity="1" stop-color="rgb(11.193848%, 76.167297%, 88.560486%)" offset="0.226562"/><stop stop-opacity="1" stop-color="rgb(11.738586%, 75.692749%, 88.632202%)" offset="0.230469"/><stop stop-opacity="1" stop-color="rgb(12.284851%, 75.218201%, 88.703918%)" offset="0.234375"/><stop stop-opacity="1" stop-color="rgb(12.82959%, 74.743652%, 88.774109%)" offset="0.238281"/><stop stop-opacity="1" stop-color="rgb(13.375854%, 74.269104%, 88.845825%)" offset="0.242187"/><stop stop-opacity="1" stop-color="rgb(13.922119%, 73.794556%, 88.916016%)" offset="0.246094"/><stop stop-opacity="1" stop-color="rgb(14.468384%, 73.320007%, 88.987732%)" offset="0.25"/><stop stop-opacity="1" stop-color="rgb(15.013123%, 72.845459%, 89.059448%)" offset="0.253906"/><stop stop-opacity="1" stop-color="rgb(15.559387%, 72.370911%, 89.131165%)" offset="0.257812"/><stop stop-opacity="1" stop-color="rgb(16.105652%, 71.896362%, 89.201355%)" offset="0.261719"/><stop stop-opacity="1" stop-color="rgb(16.651917%, 71.421814%, 89.273071%)" offset="0.265625"/><stop stop-opacity="1" stop-color="rgb(17.196655%, 70.947266%, 89.344788%)" offset="0.269531"/><stop stop-opacity="1" stop-color="rgb(17.74292%, 70.472717%, 89.416504%)" offset="0.273437"/><stop stop-opacity="1" stop-color="rgb(18.287659%, 69.998169%, 89.486694%)" offset="0.277344"/><stop stop-opacity="1" stop-color="rgb(18.833923%, 69.523621%, 89.558411%)" offset="0.28125"/><stop stop-opacity="1" stop-color="rgb(19.380188%, 69.049072%, 89.628601%)" offset="0.285156"/><stop stop-opacity="1" stop-color="rgb(19.926453%, 68.574524%, 89.700317%)" offset="0.289062"/><stop stop-opacity="1" stop-color="rgb(20.471191%, 68.099976%, 89.772034%)" offset="0.292969"/><stop stop-opacity="1" stop-color="rgb(21.017456%, 67.625427%, 89.84375%)" offset="0.296875"/><stop stop-opacity="1" stop-color="rgb(21.563721%, 67.150879%, 89.91394%)" offset="0.300781"/><stop stop-opacity="1" stop-color="rgb(22.109985%, 66.676331%, 89.985657%)" offset="0.304687"/><stop stop-opacity="1" stop-color="rgb(22.654724%, 66.201782%, 90.057373%)" offset="0.308594"/><stop stop-opacity="1" stop-color="rgb(23.200989%, 65.727234%, 90.129089%)" offset="0.3125"/><stop stop-opacity="1" stop-color="rgb(23.745728%, 65.252686%, 90.19928%)" offset="0.316406"/><stop stop-opacity="1" stop-color="rgb(24.291992%, 64.778137%, 90.270996%)" offset="0.320312"/><stop stop-opacity="1" stop-color="rgb(24.838257%, 64.303589%, 90.341187%)" offset="0.324219"/><stop stop-opacity="1" stop-color="rgb(25.384521%, 63.829041%, 90.412903%)" offset="0.328125"/><stop stop-opacity="1" stop-color="rgb(25.92926%, 63.354492%, 90.484619%)" offset="0.332031"/><stop stop-opacity="1" stop-color="rgb(26.475525%, 62.879944%, 90.556335%)" offset="0.335938"/><stop stop-opacity="1" stop-color="rgb(27.020264%, 62.405396%, 90.626526%)" offset="0.339844"/><stop stop-opacity="1" stop-color="rgb(27.566528%, 61.930847%, 90.698242%)" offset="0.34375"/><stop stop-opacity="1" stop-color="rgb(28.112793%, 61.456299%, 90.769958%)" offset="0.347656"/><stop stop-opacity="1" stop-color="rgb(28.659058%, 60.98175%, 90.841675%)" offset="0.351562"/><stop stop-opacity="1" stop-color="rgb(29.203796%, 60.507202%, 90.911865%)" offset="0.355469"/><stop stop-opacity="1" stop-color="rgb(29.750061%, 60.032654%, 90.983582%)" offset="0.359375"/><stop stop-opacity="1" stop-color="rgb(30.296326%, 59.558105%, 91.055298%)" offset="0.363281"/><stop stop-opacity="1" stop-color="rgb(30.84259%, 59.083557%, 91.127014%)" offset="0.367188"/><stop stop-opacity="1" stop-color="rgb(31.387329%, 58.609009%, 91.197205%)" offset="0.371094"/><stop stop-opacity="1" stop-color="rgb(31.933594%, 58.13446%, 91.268921%)" offset="0.375"/><stop stop-opacity="1" stop-color="rgb(32.478333%, 57.659912%, 91.339111%)" offset="0.378906"/><stop stop-opacity="1" stop-color="rgb(33.024597%, 57.185364%, 91.410828%)" offset="0.382812"/><stop stop-opacity="1" stop-color="rgb(33.570862%, 56.710815%, 91.482544%)" offset="0.386719"/><stop stop-opacity="1" stop-color="rgb(34.117126%, 56.236267%, 91.55426%)" offset="0.390625"/><stop stop-opacity="1" stop-color="rgb(34.661865%, 55.761719%, 91.624451%)" offset="0.394531"/><stop stop-opacity="1" stop-color="rgb(35.20813%, 55.28717%, 91.696167%)" offset="0.398438"/><stop stop-opacity="1" stop-color="rgb(35.754395%, 54.812622%, 91.767883%)" offset="0.402344"/><stop stop-opacity="1" stop-color="rgb(36.300659%, 54.338074%, 91.8396%)" offset="0.40625"/><stop stop-opacity="1" stop-color="rgb(36.845398%, 53.863525%, 91.90979%)" offset="0.410156"/><stop stop-opacity="1" stop-color="rgb(37.391663%, 53.388977%, 91.981506%)" offset="0.414062"/><stop stop-opacity="1" stop-color="rgb(37.936401%, 52.914429%, 92.051697%)" offset="0.417969"/><stop stop-opacity="1" stop-color="rgb(38.482666%, 52.43988%, 92.123413%)" offset="0.421875"/><stop stop-opacity="1" stop-color="rgb(39.028931%, 51.965332%, 92.195129%)" offset="0.425781"/><stop stop-opacity="1" stop-color="rgb(39.575195%, 51.490784%, 92.266846%)" offset="0.429688"/><stop stop-opacity="1" stop-color="rgb(40.119934%, 51.016235%, 92.337036%)" offset="0.433594"/><stop stop-opacity="1" stop-color="rgb(40.666199%, 50.541687%, 92.408752%)" offset="0.4375"/><stop stop-opacity="1" stop-color="rgb(41.212463%, 50.067139%, 92.480469%)" offset="0.441406"/><stop stop-opacity="1" stop-color="rgb(41.758728%, 49.59259%, 92.552185%)" offset="0.445312"/><stop stop-opacity="1" stop-color="rgb(42.303467%, 49.118042%, 92.622375%)" offset="0.449219"/><stop stop-opacity="1" stop-color="rgb(42.849731%, 48.643494%, 92.694092%)" offset="0.453125"/><stop stop-opacity="1" stop-color="rgb(43.39447%, 48.168945%, 92.764282%)" offset="0.457031"/><stop stop-opacity="1" stop-color="rgb(43.940735%, 47.694397%, 92.835999%)" offset="0.460938"/><stop stop-opacity="1" stop-color="rgb(44.487%, 47.219849%, 92.907715%)" offset="0.464844"/><stop stop-opacity="1" stop-color="rgb(45.033264%, 46.7453%, 92.979431%)" offset="0.46875"/><stop stop-opacity="1" stop-color="rgb(45.578003%, 46.270752%, 93.049622%)" offset="0.472656"/><stop stop-opacity="1" stop-color="rgb(46.124268%, 45.796204%, 93.121338%)" offset="0.476562"/><stop stop-opacity="1" stop-color="rgb(46.670532%, 45.321655%, 93.193054%)" offset="0.480469"/><stop stop-opacity="1" stop-color="rgb(47.216797%, 44.847107%, 93.264771%)" offset="0.484375"/><stop stop-opacity="1" stop-color="rgb(47.761536%, 44.372559%, 93.334961%)" offset="0.488281"/><stop stop-opacity="1" stop-color="rgb(48.3078%, 43.89801%, 93.406677%)" offset="0.492187"/><stop stop-opacity="1" stop-color="rgb(48.852539%, 43.423462%, 93.476868%)" offset="0.496094"/><stop stop-opacity="1" stop-color="rgb(49.398804%, 42.948914%, 93.548584%)" offset="0.5"/><stop stop-opacity="1" stop-color="rgb(49.945068%, 42.474365%, 93.6203%)" offset="0.503906"/><stop stop-opacity="1" stop-color="rgb(50.491333%, 41.999817%, 93.692017%)" offset="0.507812"/><stop stop-opacity="1" stop-color="rgb(51.036072%, 41.525269%, 93.762207%)" offset="0.511719"/><stop stop-opacity="1" stop-color="rgb(51.582336%, 41.05072%, 93.833923%)" offset="0.515625"/><stop stop-opacity="1" stop-color="rgb(52.127075%, 40.576172%, 93.90564%)" offset="0.519531"/><stop stop-opacity="1" stop-color="rgb(52.67334%, 40.101624%, 93.977356%)" offset="0.523438"/><stop stop-opacity="1" stop-color="rgb(53.219604%, 39.627075%, 94.047546%)" offset="0.527344"/><stop stop-opacity="1" stop-color="rgb(53.765869%, 39.152527%, 94.119263%)" offset="0.53125"/><stop stop-opacity="1" stop-color="rgb(54.310608%, 38.677979%, 94.189453%)" offset="0.535156"/><stop stop-opacity="1" stop-color="rgb(54.856873%, 38.20343%, 94.261169%)" offset="0.539062"/><stop stop-opacity="1" stop-color="rgb(55.403137%, 37.728882%, 94.332886%)" offset="0.542969"/><stop stop-opacity="1" stop-color="rgb(55.949402%, 37.254333%, 94.404602%)" offset="0.546875"/><stop stop-opacity="1" stop-color="rgb(56.494141%, 36.779785%, 94.474792%)" offset="0.550781"/><stop stop-opacity="1" stop-color="rgb(57.040405%, 36.305237%, 94.546509%)" offset="0.554687"/><stop stop-opacity="1" stop-color="rgb(57.585144%, 35.830688%, 94.618225%)" offset="0.558594"/><stop stop-opacity="1" stop-color="rgb(58.131409%, 35.35614%, 94.689941%)" offset="0.5625"/><stop stop-opacity="1" stop-color="rgb(58.677673%, 34.881592%, 94.760132%)" offset="0.566406"/><stop stop-opacity="1" stop-color="rgb(59.223938%, 34.407043%, 94.831848%)" offset="0.570312"/><stop stop-opacity="1" stop-color="rgb(59.768677%, 33.932495%, 94.902039%)" offset="0.574219"/><stop stop-opacity="1" stop-color="rgb(60.314941%, 33.457947%, 94.973755%)" offset="0.578125"/><stop stop-opacity="1" stop-color="rgb(60.861206%, 32.983398%, 95.045471%)" offset="0.582031"/><stop stop-opacity="1" stop-color="rgb(61.407471%, 32.50885%, 95.117188%)" offset="0.585937"/><stop stop-opacity="1" stop-color="rgb(61.952209%, 32.034302%, 95.187378%)" offset="0.589844"/><stop stop-opacity="1" stop-color="rgb(62.498474%, 31.559753%, 95.259094%)" offset="0.59375"/><stop stop-opacity="1" stop-color="rgb(63.043213%, 31.085205%, 95.330811%)" offset="0.597656"/><stop stop-opacity="1" stop-color="rgb(63.589478%, 30.610657%, 95.402527%)" offset="0.601562"/><stop stop-opacity="1" stop-color="rgb(64.135742%, 30.136108%, 95.472717%)" offset="0.605469"/><stop stop-opacity="1" stop-color="rgb(64.682007%, 29.66156%, 95.544434%)" offset="0.609375"/><stop stop-opacity="1" stop-color="rgb(65.226746%, 29.187012%, 95.61615%)" offset="0.613281"/><stop stop-opacity="1" stop-color="rgb(65.77301%, 28.712463%, 95.687866%)" offset="0.617187"/><stop stop-opacity="1" stop-color="rgb(66.319275%, 28.237915%, 95.758057%)" offset="0.621094"/><stop stop-opacity="1" stop-color="rgb(66.86554%, 27.763367%, 95.829773%)" offset="0.625"/><stop stop-opacity="1" stop-color="rgb(67.410278%, 27.288818%, 95.899963%)" offset="0.628906"/><stop stop-opacity="1" stop-color="rgb(67.956543%, 26.81427%, 95.97168%)" offset="0.632812"/><stop stop-opacity="1" stop-color="rgb(68.501282%, 26.339722%, 96.043396%)" offset="0.636719"/><stop stop-opacity="1" stop-color="rgb(69.047546%, 25.866699%, 96.115112%)" offset="0.640625"/><stop stop-opacity="1" stop-color="rgb(69.593811%, 25.392151%, 96.185303%)" offset="0.644531"/><stop stop-opacity="1" stop-color="rgb(70.140076%, 24.917603%, 96.257019%)" offset="0.648437"/><stop stop-opacity="1" stop-color="rgb(70.684814%, 24.443054%, 96.328735%)" offset="0.652344"/><stop stop-opacity="1" stop-color="rgb(71.231079%, 23.968506%, 96.400452%)" offset="0.65625"/><stop stop-opacity="1" stop-color="rgb(71.775818%, 23.493958%, 96.470642%)" offset="0.660156"/><stop stop-opacity="1" stop-color="rgb(72.322083%, 23.019409%, 96.542358%)" offset="0.664062"/><stop stop-opacity="1" stop-color="rgb(72.868347%, 22.544861%, 96.612549%)" offset="0.667969"/><stop stop-opacity="1" stop-color="rgb(73.414612%, 22.070312%, 96.684265%)" offset="0.671875"/><stop stop-opacity="1" stop-color="rgb(73.959351%, 21.595764%, 96.755981%)" offset="0.675781"/><stop stop-opacity="1" stop-color="rgb(74.505615%, 21.121216%, 96.827698%)" offset="0.679687"/><stop stop-opacity="1" stop-color="rgb(75.05188%, 20.646667%, 96.897888%)" offset="0.683594"/><stop stop-opacity="1" stop-color="rgb(75.598145%, 20.172119%, 96.969604%)" offset="0.6875"/><stop stop-opacity="1" stop-color="rgb(76.142883%, 19.697571%, 97.041321%)" offset="0.691406"/><stop stop-opacity="1" stop-color="rgb(76.689148%, 19.223022%, 97.113037%)" offset="0.695312"/><stop stop-opacity="1" stop-color="rgb(77.233887%, 18.748474%, 97.183228%)" offset="0.699219"/><stop stop-opacity="1" stop-color="rgb(77.780151%, 18.273926%, 97.254944%)" offset="0.703125"/><stop stop-opacity="1" stop-color="rgb(78.326416%, 17.799377%, 97.325134%)" offset="0.707031"/><stop stop-opacity="1" stop-color="rgb(78.872681%, 17.324829%, 97.396851%)" offset="0.710938"/><stop stop-opacity="1" stop-color="rgb(79.417419%, 16.850281%, 97.468567%)" offset="0.714844"/><stop stop-opacity="1" stop-color="rgb(79.963684%, 16.375732%, 97.540283%)" offset="0.71875"/><stop stop-opacity="1" stop-color="rgb(80.509949%, 15.901184%, 97.610474%)" offset="0.722656"/><stop stop-opacity="1" stop-color="rgb(81.056213%, 15.426636%, 97.68219%)" offset="0.726562"/><stop stop-opacity="1" stop-color="rgb(81.600952%, 14.952087%, 97.753906%)" offset="0.730469"/><stop stop-opacity="1" stop-color="rgb(82.147217%, 14.477539%, 97.825623%)" offset="0.734375"/><stop stop-opacity="1" stop-color="rgb(82.691956%, 14.002991%, 97.895813%)" offset="0.738281"/><stop stop-opacity="1" stop-color="rgb(83.23822%, 13.528442%, 97.967529%)" offset="0.742188"/><stop stop-opacity="1" stop-color="rgb(83.784485%, 13.053894%, 98.03772%)" offset="0.746094"/><stop stop-opacity="1" stop-color="rgb(84.33075%, 12.579346%, 98.109436%)" offset="0.75"/><stop stop-opacity="1" stop-color="rgb(84.875488%, 12.104797%, 98.181152%)" offset="0.753906"/><stop stop-opacity="1" stop-color="rgb(85.421753%, 11.630249%, 98.252869%)" offset="0.757812"/><stop stop-opacity="1" stop-color="rgb(85.968018%, 11.155701%, 98.323059%)" offset="0.761719"/><stop stop-opacity="1" stop-color="rgb(86.514282%, 10.681152%, 98.394775%)" offset="0.765625"/><stop stop-opacity="1" stop-color="rgb(87.059021%, 10.206604%, 98.466492%)" offset="0.769531"/><stop stop-opacity="1" stop-color="rgb(87.605286%, 9.732056%, 98.538208%)" offset="0.773438"/><stop stop-opacity="1" stop-color="rgb(88.150024%, 9.257507%, 98.608398%)" offset="0.777344"/><stop stop-opacity="1" stop-color="rgb(88.696289%, 8.782959%, 98.680115%)" offset="0.78125"/><stop stop-opacity="1" stop-color="rgb(89.242554%, 8.308411%, 98.750305%)" offset="0.785156"/><stop stop-opacity="1" stop-color="rgb(89.788818%, 7.833862%, 98.822021%)" offset="0.789062"/><stop stop-opacity="1" stop-color="rgb(90.333557%, 7.359314%, 98.893738%)" offset="0.792969"/><stop stop-opacity="1" stop-color="rgb(90.879822%, 6.884766%, 98.965454%)" offset="0.796875"/><stop stop-opacity="1" stop-color="rgb(91.424561%, 6.410217%, 99.035645%)" offset="0.800781"/><stop stop-opacity="1" stop-color="rgb(91.970825%, 5.935669%, 99.107361%)" offset="0.804688"/><stop stop-opacity="1" stop-color="rgb(92.51709%, 5.461121%, 99.179077%)" offset="0.808594"/><stop stop-opacity="1" stop-color="rgb(93.063354%, 4.986572%, 99.250793%)" offset="0.8125"/><stop stop-opacity="1" stop-color="rgb(93.608093%, 4.512024%, 99.320984%)" offset="0.816406"/><stop stop-opacity="1" stop-color="rgb(94.154358%, 4.037476%, 99.3927%)" offset="0.820312"/><stop stop-opacity="1" stop-color="rgb(94.700623%, 3.562927%, 99.462891%)" offset="0.824219"/><stop stop-opacity="1" stop-color="rgb(95.246887%, 3.088379%, 99.534607%)" offset="0.828125"/><stop stop-opacity="1" stop-color="rgb(95.791626%, 2.613831%, 99.606323%)" offset="0.832031"/><stop stop-opacity="1" stop-color="rgb(96.337891%, 2.139282%, 99.67804%)" offset="0.835938"/><stop stop-opacity="1" stop-color="rgb(96.882629%, 1.664734%, 99.74823%)" offset="0.839844"/><stop stop-opacity="1" stop-color="rgb(97.428894%, 1.190186%, 99.819946%)" offset="0.84375"/><stop stop-opacity="1" stop-color="rgb(97.975159%, 0.715637%, 99.891663%)" offset="0.847656"/><stop stop-opacity="1" stop-color="rgb(98.521423%, 0.241089%, 99.963379%)" offset="0.851562"/><stop stop-opacity="1" stop-color="rgb(98.660278%, 0.120544%, 99.981689%)" offset="0.859375"/><stop stop-opacity="1" stop-color="rgb(98.799133%, 0%, 100%)" offset="0.875"/><stop stop-opacity="1" stop-color="rgb(98.799133%, 0%, 100%)" offset="1"/></linearGradient></defs><g clip-path="url(#8c8a9a9bef)"><rect x="-37.5" fill="url(#1732ce9962)" width="450" y="-37.499999" height="449.999989"/></g><path fill="#fffffe" d="M 261.546875 247.046875 L 189.332031 247.046875 C 187.9375 247.046875 186.839844 245.945312 186.839844 244.554688 C 186.839844 243.164062 187.9375 242.066406 189.332031 242.066406 L 261.546875 242.066406 C 262.9375 242.066406 264.039062 243.164062 264.039062 244.554688 C 264.039062 245.945312 262.9375 247.046875 261.546875 247.046875 Z M 267.625 207.273438 L 183.179688 207.273438 C 181.785156 207.273438 180.6875 206.175781 180.6875 204.785156 C 180.6875 203.394531 181.785156 202.292969 183.179688 202.292969 L 267.628906 202.292969 C 269.019531 202.292969 270.117188 203.394531 270.117188 204.785156 C 270.117188 206.101562 269.019531 207.273438 267.625 207.273438 Z M 267.625 207.273438 " fill-opacity="1" fill-rule="nonzero"/><path fill="#fffffe" d="M 258.691406 265.28125 L 192.113281 265.28125 C 190.722656 265.28125 189.625 264.183594 189.625 262.792969 C 189.625 261.402344 190.722656 260.300781 192.113281 260.300781 L 258.691406 260.300781 C 260.082031 260.300781 261.179688 261.402344 261.179688 262.792969 C 261.179688 264.183594 260.082031 265.28125 258.691406 265.28125 Z M 270.484375 189.039062 L 180.394531 189.039062 C 179.003906 189.039062 177.90625 187.9375 177.90625 186.546875 C 177.90625 185.15625 179.003906 184.058594 180.394531 184.058594 L 270.410156 184.058594 C 271.800781 184.058594 272.898438 185.15625 272.898438 186.546875 C 272.898438 187.9375 271.800781 189.039062 270.484375 189.039062 Z M 270.484375 189.039062 " fill-opacity="1" fill-rule="nonzero"/><path fill="#fffffe" d="M 150.878906 144.652344 L 135.863281 144.652344 C 134.472656 144.652344 133.375 143.554688 133.375 142.164062 C 133.375 140.769531 134.472656 139.671875 135.863281 139.671875 L 150.878906 139.671875 C 156.8125 139.671875 161.574219 134.839844 161.574219 128.980469 L 161.574219 108.179688 C 161.574219 93.96875 150 82.472656 135.863281 82.472656 C 134.472656 82.472656 133.375 81.371094 133.375 79.980469 C 133.375 78.589844 134.472656 77.492188 135.863281 77.492188 C 152.785156 77.492188 166.625 91.257812 166.625 108.253906 L 166.625 128.90625 C 166.625 137.546875 159.59375 144.652344 150.878906 144.652344 Z M 150.878906 144.652344 " fill-opacity="1" fill-rule="nonzero"/><path fill="#fffffe" d="M 146.191406 298.386719 L 125.539062 298.386719 C 118.726562 298.386719 113.304688 293.113281 111.769531 285.058594 L 99.757812 223.023438 C 99.171875 219.871094 100.050781 216.648438 102.246094 214.011719 C 104.957031 210.71875 109.277344 208.738281 113.597656 208.738281 L 158.277344 208.738281 C 162.597656 208.738281 166.917969 210.789062 169.628906 214.011719 C 171.824219 216.648438 172.703125 219.871094 172.117188 223.023438 L 160.109375 285.058594 C 158.421875 293.113281 153.003906 298.386719 146.191406 298.386719 Z M 113.523438 213.648438 C 110.742188 213.648438 107.8125 215.039062 106.054688 217.164062 C 105.175781 218.1875 104.222656 219.945312 104.664062 222.070312 L 116.675781 284.105469 C 117.554688 288.574219 120.335938 293.410156 125.539062 293.410156 L 146.191406 293.410156 C 151.390625 293.410156 154.175781 288.574219 155.054688 284.105469 L 167.066406 222.070312 C 167.503906 219.945312 166.554688 218.261719 165.675781 217.164062 C 163.917969 215.039062 160.988281 213.648438 158.203125 213.648438 Z M 113.523438 213.648438 " fill-opacity="1" fill-rule="nonzero"/><path fill="#fffffe" d="M 160.328125 272.605469 L 111.402344 272.605469 C 110.007812 272.605469 108.910156 271.507812 108.910156 270.117188 C 108.910156 268.726562 110.007812 267.625 111.402344 267.625 L 160.328125 267.625 C 161.71875 267.625 162.816406 268.726562 162.816406 270.117188 C 162.816406 271.507812 161.71875 272.605469 160.328125 272.605469 Z M 166.773438 239.355469 L 104.957031 239.355469 C 103.5625 239.355469 102.464844 238.257812 102.464844 236.863281 C 102.464844 235.472656 103.5625 234.375 104.957031 234.375 L 166.773438 234.375 C 168.164062 234.375 169.261719 235.472656 169.261719 236.863281 C 169.261719 238.257812 168.164062 239.355469 166.773438 239.355469 Z M 166.773438 239.355469 " fill-opacity="1" fill-rule="nonzero"/><path fill="#fffffe" d="M 240.085938 298.386719 L 210.863281 298.386719 C 201.488281 298.386719 194.019531 291.0625 192.332031 280.222656 L 175.339844 169.847656 C 174.683594 165.527344 176 161.277344 179.003906 157.691406 C 182.664062 153.441406 188.230469 150.878906 193.871094 150.878906 L 257.078125 150.878906 C 262.71875 150.878906 268.285156 153.441406 271.949219 157.691406 C 274.949219 161.207031 276.269531 165.527344 275.609375 169.847656 L 258.542969 280.222656 C 256.859375 291.0625 249.460938 298.386719 240.085938 298.386719 Z M 193.796875 155.933594 C 189.625 155.933594 185.449219 157.835938 182.738281 160.984375 C 181.273438 162.671875 179.664062 165.453125 180.175781 169.117188 L 197.167969 279.492188 C 198.265625 286.449219 202.808594 293.40625 210.71875 293.40625 L 239.941406 293.40625 C 247.851562 293.40625 252.464844 286.449219 253.492188 279.492188 L 270.484375 169.117188 C 271.070312 165.527344 269.386719 162.671875 267.921875 160.984375 C 265.28125 157.910156 261.035156 155.933594 256.859375 155.933594 Z M 193.796875 155.933594 " fill-opacity="1" fill-rule="nonzero"/><path fill="#fffffe" d="M 249.976562 155.933594 C 248.582031 155.933594 247.484375 154.832031 247.484375 153.441406 L 247.484375 140.40625 C 247.484375 139.453125 246.679688 138.648438 245.726562 138.648438 L 205.152344 138.648438 C 204.199219 138.648438 203.394531 139.453125 203.394531 140.40625 L 203.394531 153.441406 C 203.394531 154.832031 202.292969 155.933594 200.902344 155.933594 C 199.511719 155.933594 198.414062 154.832031 198.414062 153.441406 L 198.414062 140.40625 C 198.414062 136.667969 201.417969 133.667969 205.152344 133.667969 L 245.726562 133.667969 C 249.464844 133.667969 252.464844 136.667969 252.464844 140.40625 L 252.464844 153.441406 C 252.464844 154.761719 251.367188 155.933594 249.976562 155.933594 Z M 249.976562 155.933594 " fill-opacity="1" fill-rule="nonzero"/><path fill="#fffffe" d="M 135.863281 213.648438 C 134.472656 213.648438 133.375 212.546875 133.375 211.15625 L 133.375 79.832031 C 133.375 78.441406 134.472656 77.34375 135.863281 77.34375 C 137.253906 77.34375 138.355469 78.441406 138.355469 79.832031 L 138.355469 211.082031 C 138.355469 212.546875 137.253906 213.648438 135.863281 213.648438 Z M 135.863281 213.648438 " fill-opacity="1" fill-rule="nonzero"/></svg>